<?xml version="1.0" encoding="iso-8859-1"?>
<!-- Generator: Adobe Illustrator 19.0.0, SVG Export Plug-In . SVG Version: 6.00 Build 0)  -->
<svg version="1.1" id="Capa_1" xmlns="http://www.w3.org/2000/svg" xmlns:xlink="http://www.w3.org/1999/xlink" x="0px" y="0px"
	 viewBox="0 0 512 512" style="enable-background:new 0 0 512 512;" xml:space="preserve">
<polygon style="fill:#EBBA16;" points="61.793,26.483 61.793,494.345 344.276,494.345 344.276,379.586 344.276,132.414 
	344.276,114.759 344.276,26.483 "/>
<g>
	<path style="fill:#E7ECED;" d="M344.276,70.621H61.793V22.484C61.793,10.063,71.857,0,84.277,0h237.524
		c12.412,0,22.475,10.063,22.475,22.484V70.621z"/>
	<path style="fill:#E7ECED;" d="M321.792,512H84.277c-12.42,0-22.484-10.063-22.484-22.484v-48.137h282.483v48.137
		C344.276,501.937,334.212,512,321.792,512z"/>
</g>
<g>
	<circle style="fill:#AFB6BB;" cx="203.034" cy="476.69" r="35.31"/>
	<path style="fill:#AFB6BB;" d="M229.517,44.138h-52.966c-4.873,0-8.828-3.946-8.828-8.828s3.955-8.828,8.828-8.828h52.966
		c4.873,0,8.828,3.946,8.828,8.828S234.39,44.138,229.517,44.138z"/>
</g>
<path style="fill:#75348B;" d="M167.724,150.069v211.862c0,9.754,7.91,17.655,17.655,17.655h35.31h61.793h88.276h61.793
	c9.754,0,17.655-7.91,17.655-17.655V150.069c0-9.754-7.91-17.655-17.655-17.655H185.379
	C175.634,132.414,167.724,140.323,167.724,150.069z"/>
<g>
	<path style="fill:#FFFFFF;" d="M282.483,212.586c-4.873,0-8.828-3.946-8.828-8.828c0-14.751-12.129-27.207-26.483-27.207
		c-4.873,0-8.828-3.946-8.828-8.828s3.955-8.828,8.828-8.828c24.338,0,44.138,20.127,44.138,44.862
		C291.31,208.64,287.356,212.586,282.483,212.586z"/>
	<path style="fill:#FFFFFF;" d="M259.858,247.172c-25.565,0-47.996-20.63-47.996-44.138c0-4.882,3.955-8.828,8.828-8.828
		c4.873,0,8.828,3.946,8.828,8.828c0,14.91,16.305,26.483,30.34,26.483c4.873,0,8.828,3.946,8.828,8.828
		C268.685,243.226,264.73,247.172,259.858,247.172z"/>
	<path style="fill:#FFFFFF;" d="M256,282.483h-35.31c-4.873,0-8.828-3.946-8.828-8.828s3.955-8.828,8.828-8.828H256
		c4.873,0,8.828,3.946,8.828,8.828S260.873,282.483,256,282.483z"/>
	<path style="fill:#FFFFFF;" d="M229.517,353.103c-4.873,0-8.828-3.946-8.828-8.828c0-23.508,21.937-44.138,46.936-44.138
		c4.873,0,8.828,3.946,8.828,8.828c0,4.882-3.955,8.828-8.828,8.828c-15.325,0-29.281,12.623-29.281,26.483
		C238.345,349.158,234.39,353.103,229.517,353.103z"/>
	<path style="fill:#FFFFFF;" d="M335.448,212.586c-4.873,0-8.828-3.946-8.828-8.828c0-24.735,19.8-44.862,44.138-44.862
		c4.873,0,8.828,3.946,8.828,8.828s-3.955,8.828-8.828,8.828c-14.354,0-26.483,12.456-26.483,27.207
		C344.276,208.64,340.321,212.586,335.448,212.586z"/>
	<path style="fill:#FFFFFF;" d="M358.073,247.172c-4.873,0-8.828-3.946-8.828-8.828c0-4.882,3.955-8.828,8.828-8.828
		c14.036,0,30.34-11.573,30.34-26.483c0-4.882,3.955-8.828,8.828-8.828c4.873,0,8.828,3.946,8.828,8.828
		C406.069,226.542,383.638,247.172,358.073,247.172z"/>
	<path style="fill:#FFFFFF;" d="M397.241,282.483h-35.31c-4.873,0-8.828-3.946-8.828-8.828s3.955-8.828,8.828-8.828h35.31
		c4.873,0,8.828,3.946,8.828,8.828S402.114,282.483,397.241,282.483z"/>
	<path style="fill:#FFFFFF;" d="M388.414,353.103c-4.873,0-8.828-3.946-8.828-8.828c0-13.859-13.956-26.483-29.281-26.483
		c-4.873,0-8.828-3.946-8.828-8.828c0-4.882,3.955-8.828,8.828-8.828c25,0,46.936,20.63,46.936,44.138
		C397.241,349.158,393.287,353.103,388.414,353.103z"/>
</g>
<rect x="97.103" y="132.414" style="fill:#DD352E;" width="35.31" height="35.31"/>
<rect x="97.103" y="344.276" style="fill:#25AE88;" width="35.31" height="35.31"/>
<rect x="97.103" y="273.655" style="fill:#BF4D90;" width="35.31" height="35.31"/>
<rect x="97.103" y="203.034" style="fill:#366DB6;" width="35.31" height="35.31"/>
<path style="fill:#556080;" d="M308.966,256c19.694,0,37.5-5.049,50.308-13.18c-6.939-28.222-26.827-48.614-50.308-48.614
	s-43.37,20.392-50.308,48.614C271.466,250.951,289.271,256,308.966,256z"/>
<path style="fill:#7383BF;" d="M359.194,242.856c-12.8,8.104-30.561,13.144-50.229,13.144s-37.429-5.041-50.229-13.144
	c-1.721,6.93-2.737,14.274-2.737,21.972c0,39,23.72,70.621,52.966,70.621s52.966-31.62,52.966-70.621
	C361.931,257.13,360.916,249.785,359.194,242.856z"/>
<g>
</g>
<g>
</g>
<g>
</g>
<g>
</g>
<g>
</g>
<g>
</g>
<g>
</g>
<g>
</g>
<g>
</g>
<g>
</g>
<g>
</g>
<g>
</g>
<g>
</g>
<g>
</g>
<g>
</g>
</svg>
