<?xml version="1.0" encoding="iso-8859-1"?>
<!-- Generator: Adobe Illustrator 19.0.0, SVG Export Plug-In . SVG Version: 6.00 Build 0)  -->
<svg version="1.1" id="Capa_1" xmlns="http://www.w3.org/2000/svg" xmlns:xlink="http://www.w3.org/1999/xlink" x="0px" y="0px"
	 viewBox="0 0 512 512" style="enable-background:new 0 0 512 512;" xml:space="preserve">
<rect x="51.426" y="421.993" style="fill:#F9D6BD;" width="53.764" height="79.753"/>
<rect x="38.292" y="342.49" style="fill:#898998;" width="66.903" height="79.503"/>
<path style="fill:#C9F3FF;" d="M187.796,164.638c7.806-7.807,7.806-20.465,0-28.272c-0.015-0.015-0.032-0.027-0.047-0.042
	c-0.015,0.015-0.032,0.027-0.047,0.042l-94.18,94.18H65.344H38.29v111.948h66.903v-95.252L187.796,164.638z"/>
<path style="fill:#FFC66C;" d="M392.079,321.897c7.572-7.573,7.776-19.7,0.656-27.546l-93.454,93.454h-27.255l-1.199-1.199
	l-1.199,1.199h-27.255l-93.454-93.454c-7.121,7.846-6.918,19.973,0.656,27.546l82.604,82.604v95.252h77.297v-95.252L392.079,321.897
	z"/>
<rect x="250.873" y="221.966" style="fill:#898998;" width="58.603" height="125.991"/>
<path style="fill:#D8FB93;" d="M392.079,44.109c7.348-7.349,7.773-18.993,1.288-26.846l-92.755,92.755h-27.255l-1.865-1.865
	l-1.865,1.865h-27.255l-92.755-92.755c-6.486,7.853-6.06,19.498,1.288,26.846l82.604,82.604v95.252h75.965v-95.252L392.079,44.109z"
	/>
<rect x="440.584" y="421.993" style="fill:#F9D6BD;" width="61.311" height="79.753"/>
<rect x="439.245" y="342.49" style="fill:#898998;" width="62.641" height="79.503"/>
<path style="fill:#D8D8E4;" d="M476.637,230.545h-29.982l-93.281-93.281c-6.961,7.851-6.705,19.856,0.812,27.373l82.604,82.604
	v95.252h65.1V230.545L476.637,230.545L476.637,230.545z"/>
<path style="fill:#FFFFFF;" d="M250.876,342.12c0-16.434,9.532-30.64,23.365-37.4c-5.508-2.692-11.698-4.207-18.241-4.207
	c-22.979,0-41.607,18.628-41.607,41.607c0,22.978,18.628,41.607,41.607,41.607c6.544,0,12.733-1.515,18.241-4.207
	C260.407,372.759,250.876,358.554,250.876,342.12z"/>
<g>
	<path style="fill:#F9D6BD;" d="M297.607,342.12c0-16.434-9.532-30.64-23.365-37.4c-13.835,6.761-23.365,20.965-23.365,37.4
		c0,16.434,9.532,30.64,23.365,37.4C288.075,372.759,297.607,358.554,297.607,342.12z"/>
	<path style="fill:#F9D6BD;" d="M274.241,26.931c-13.835,6.761-23.365,20.965-23.365,37.4s9.532,30.64,23.365,37.4
		c13.835-6.761,23.365-20.965,23.365-37.4S288.075,33.691,274.241,26.931z"/>
	<path style="fill:#F9D6BD;" d="M69.959,147.46c-13.835,6.76-23.365,20.965-23.365,37.4s9.532,30.64,23.365,37.4
		c13.835-6.76,23.365-20.965,23.365-37.4S83.793,154.22,69.959,147.46z"/>
	<path style="fill:#F9D6BD;" d="M478.523,147.46c-13.835,6.76-23.365,20.965-23.365,37.4s9.532,30.64,23.365,37.4
		c13.835-6.76,23.365-20.965,23.365-37.4S492.358,154.22,478.523,147.46z"/>
</g>
<path d="M255.999,257.772c-2.629,0-5.208,1.069-7.067,2.929c-1.859,1.858-2.929,4.437-2.929,7.067c0,2.629,1.07,5.208,2.929,7.066
	c1.859,1.859,4.438,2.93,7.067,2.93s5.208-1.07,7.067-2.93c1.859-1.858,2.929-4.437,2.929-7.066c0-2.63-1.07-5.209-2.929-7.067
	C261.207,258.841,258.628,257.772,255.999,257.772z"/>
<path d="M345.408,143.433l94.18,94.18c1.874,1.874,4.417,2.928,7.068,2.928h55.234c5.52,0,9.995-4.475,9.995-9.995
	s-4.475-9.995-9.995-9.995h-4.391c8.9-9.277,14.386-21.851,14.386-35.69c0-28.454-23.149-51.602-51.602-51.602
	c-26.404,0-48.225,19.937-51.235,45.545l-49.504-49.505c-8.532-8.532-20.966-10.83-31.608-6.91l71.211-71.212
	c11.691-11.692,11.691-30.715,0-42.407l0,0c-11.692-11.692-30.716-11.692-42.408,0l-49.504,49.505
	c-3.01-25.608-24.831-45.545-51.235-45.545s-48.225,19.937-51.235,45.545L155.26,8.769c-11.692-11.692-30.716-11.692-42.408,0
	c-11.691,11.692-11.691,30.715,0,42.407l71.212,71.211c-10.642-3.92-23.076-1.621-31.608,6.91l-49.504,49.506
	c-3.01-25.608-24.831-45.545-51.235-45.545c-28.454,0-51.602,23.148-51.602,51.602c0,13.84,5.486,26.414,14.386,35.69H10.11
	c-5.52,0-9.995,4.475-9.995,9.995s4.475,9.995,9.995,9.995h55.234c2.651,0,5.194-1.054,7.068-2.928l94.18-94.18
	c3.897-3.897,10.239-3.897,14.136,0c3.897,3.897,3.897,10.239,0,14.136l-82.604,82.604c-1.874,1.874-2.928,4.417-2.928,7.068v85.256
	h-43.48c-5.52,0-9.995,4.476-9.995,9.995s4.475,9.995,9.995,9.995h43.48v59.638H61.712V388.93c0-5.519-4.475-9.995-9.995-9.995
	s-9.995,4.476-9.995,9.995v23.196H10.11c-5.52,0-9.995,4.476-9.995,9.995s4.475,9.995,9.995,9.995h31.611v69.886
	c0,5.519,4.475,9.995,9.995,9.995s9.995-4.476,9.995-9.995v-69.885h33.484v69.634c0,5.519,4.475,9.995,9.995,9.995
	s9.995-4.476,9.995-9.995v-79.63v-0.126v-79.503v-11.193l77.342,77.342v91.11c0,5.519,4.475,9.995,9.995,9.995h106.95
	c5.52,0,9.995-4.476,9.995-9.995v-91.11l77.342-77.343v11.194v79.503v0.126v79.63c0,5.519,4.475,9.995,9.995,9.995
	c5.52,0,9.995-4.476,9.995-9.995v-69.634h33.484v69.886c0,5.519,4.475,9.995,9.995,9.995c5.52,0,9.995-4.476,9.995-9.995v-69.886
	h31.611c5.52,0,9.995-4.476,9.995-9.995s-4.475-9.995-9.995-9.995h-31.611v-23.196c0-5.519-4.475-9.995-9.995-9.995
	c-5.52,0-9.995,4.476-9.995,9.995v23.196h-33.484v-59.638h85.086c5.52,0,9.995-4.476,9.995-9.995s-4.475-9.995-9.995-9.995h-85.086
	v-85.256c0-2.651-1.053-5.194-2.928-7.068l-82.604-82.603c-3.897-3.897-3.897-10.239,0-14.137
	C335.167,139.537,341.51,139.537,345.408,143.433z M460.282,153.248c17.431,0,31.611,14.181,31.611,31.611
	c0,17.431-14.181,31.611-31.611,31.611c-17.43,0-31.611-14.181-31.611-31.611S442.851,153.248,460.282,153.248z M51.717,153.248
	c17.431,0,31.611,14.181,31.611,31.611c0,17.431-14.181,31.611-31.611,31.611s-31.611-14.181-31.611-31.611
	C20.105,167.43,34.286,153.248,51.717,153.248z M255.999,32.719c17.431,0,31.611,14.181,31.611,31.611
	c0,17.431-14.181,31.611-31.611,31.611s-31.611-14.18-31.611-31.611S238.568,32.719,255.999,32.719z M126.989,22.905
	c3.896-3.897,10.239-3.897,14.136,0l94.18,94.18c1.874,1.874,4.417,2.928,7.068,2.928h27.255c2.651,0,5.194-1.054,7.068-2.928
	l94.18-94.18c3.896-3.897,10.239-3.897,14.136,0c3.897,3.897,3.897,10.239,0,14.136l-82.604,82.604
	c-1.874,1.874-2.928,4.417-2.928,7.068v85.256h-86.959v-85.256c0-2.651-1.054-5.194-2.928-7.068l-82.604-82.603
	C123.091,33.143,123.091,26.801,126.989,22.905z M385.011,314.83l-82.604,82.604c-1.874,1.875-2.928,4.417-2.928,7.068v85.256
	H212.52v-85.256c0-2.651-1.054-5.193-2.928-7.068l-82.604-82.603c-3.897-3.897-3.897-10.24,0-14.137
	c3.896-3.898,10.239-3.898,14.136,0l94.18,94.18c1.874,1.874,4.417,2.928,7.068,2.928h27.255c2.651,0,5.194-1.053,7.068-2.928
	l94.18-94.18c3.896-3.898,10.239-3.897,14.136-0.001C388.908,304.591,388.908,310.934,385.011,314.83z M255.999,373.731
	c-17.431,0-31.611-14.181-31.611-31.611c0-17.431,14.181-31.612,31.611-31.612s31.611,14.181,31.611,31.612
	C287.612,359.55,273.43,373.731,255.999,373.731z M396.812,251.382v33.075c-11.766-9.541-29.13-8.841-40.073,2.102l-49.504,49.505
	c-3.01-25.608-24.831-45.546-51.235-45.546s-48.225,19.938-51.235,45.546l-49.504-49.505c-10.943-10.943-28.308-11.643-40.073-2.101
	v-33.076l77.342-77.342v47.924v62.176c0,5.519,4.475,9.995,9.995,9.995s9.995-4.476,9.995-9.995v-52.181h86.959v52.181
	c0,5.519,4.475,9.995,9.995,9.995s9.995-4.476,9.995-9.995v-62.176v-47.924L396.812,251.382z"/>
<path d="M28.176,349.559c1.859-1.858,2.929-4.437,2.929-7.066s-1.069-5.208-2.929-7.067s-4.438-2.929-7.067-2.929
	c-2.639,0-5.208,1.069-7.067,2.929c-1.869,1.859-2.929,4.438-2.929,7.067s1.06,5.208,2.929,7.066c1.859,1.859,4.438,2.93,7.067,2.93
	S26.317,351.419,28.176,349.559z"/>
<g>
</g>
<g>
</g>
<g>
</g>
<g>
</g>
<g>
</g>
<g>
</g>
<g>
</g>
<g>
</g>
<g>
</g>
<g>
</g>
<g>
</g>
<g>
</g>
<g>
</g>
<g>
</g>
<g>
</g>
</svg>
