<?xml version="1.0" encoding="iso-8859-1"?>
<!-- Generator: Adobe Illustrator 19.0.0, SVG Export Plug-In . SVG Version: 6.00 Build 0)  -->
<svg version="1.1" id="Capa_1" xmlns="http://www.w3.org/2000/svg" xmlns:xlink="http://www.w3.org/1999/xlink" x="0px" y="0px"
	 viewBox="0 0 512 512" style="enable-background:new 0 0 512 512;" xml:space="preserve">
<polygon style="fill:#FFD400;" points="512,181 512,512 0,512 0,181 254.2,286 256,285.399 "/>
<g>
	<polygon style="fill:#FDBF00;" points="512,181 512,512 256,512 256,285.399 	"/>
	<polygon style="fill:#FDBF00;" points="217.176,323.864 67.68,423.52 84.32,448.48 236.426,347.088 	"/>
</g>
<polygon style="fill:#FF9F00;" points="292.227,322.134 272.34,344.932 427.68,448.48 444.32,423.52 "/>
<path style="fill:#FF9100;" d="M0,181l256,210l256-210H0z"/>
<polygon style="fill:#FF7816;" points="512,181 256,391 256,181 "/>
<path style="fill:#FF2828;" d="M316,0c-28.2,0-48.3,13.799-60,25.199C244.3,13.799,224.2,0,196,0c-42.001,0-75,39.6-75,90
	c0,34.499,16.5,101.4,127.8,163.2l7.2,3.9l7.2-3.9C374.5,191.4,391,124.499,391,90C391,39.6,358.001,0,316,0z"/>
<path style="fill:#A70017;" d="M391,90c0,34.499-16.5,101.4-127.8,163.2l-7.2,3.9V25.199C267.7,13.799,287.8,0,316,0
	C358.001,0,391,39.6,391,90z"/>
<g>
</g>
<g>
</g>
<g>
</g>
<g>
</g>
<g>
</g>
<g>
</g>
<g>
</g>
<g>
</g>
<g>
</g>
<g>
</g>
<g>
</g>
<g>
</g>
<g>
</g>
<g>
</g>
<g>
</g>
</svg>
