<?xml version="1.0" encoding="iso-8859-1"?>
<!-- Generator: Adobe Illustrator 19.0.0, SVG Export Plug-In . SVG Version: 6.00 Build 0)  -->
<svg xmlns="http://www.w3.org/2000/svg" xmlns:xlink="http://www.w3.org/1999/xlink" version="1.1" id="Capa_1" x="0px" y="0px" viewBox="0 0 512 512" style="enable-background:new 0 0 512 512;" xml:space="preserve" width="512px" height="512px">
<g>
	<g>
		<path d="M256,293.5c-8.271,0-15,6.729-15,15s6.729,15,15,15s15-6.729,15-15S264.271,293.5,256,293.5z" fill="#00796b"/>
	</g>
</g>
<g>
	<g>
		<path d="M437.02,127.48C388.667,79.129,324.38,52.5,256,52.5S123.333,79.129,74.98,127.48C26.629,175.833,0,240.12,0,308.5    c0,51.861,15.441,101.819,44.653,144.476l4.468,6.524h413.758l4.468-6.524C496.559,410.32,512,360.361,512,308.5    C512,240.12,485.371,175.833,437.02,127.48z M341.01,131.259l25.98,15l-30,51.962l-25.98-15L341.01,131.259z M241,112.5h30v60h-30    V112.5z M60,293.5h60v30H60V293.5z M93.759,419.49l-15-25.98l51.962-30l15,25.98L93.759,419.49z M130.721,253.49l-51.962-30    l15-25.98l51.962,30L130.721,253.49z M175.01,198.221l-30-51.962l25.98-15l30,51.962L175.01,198.221z M256,353.5    c-24.813,0-45-20.187-45-45s20.187-45,45-45c11.143,0,21.345,4.08,29.213,10.813l133.028-76.804l15,25.98l-133.007,76.792    c0.494,2.667,0.766,5.411,0.766,8.218C301,333.313,280.813,353.5,256,353.5z M418.241,419.49l-51.962-30l15-25.98l51.962,30    L418.241,419.49z M452,323.5h-60v-30h60V323.5z" fill="#00796b"/>
	</g>
</g>
<g>
</g>
<g>
</g>
<g>
</g>
<g>
</g>
<g>
</g>
<g>
</g>
<g>
</g>
<g>
</g>
<g>
</g>
<g>
</g>
<g>
</g>
<g>
</g>
<g>
</g>
<g>
</g>
<g>
</g>
</svg>
